<?xml version="1.0" encoding="utf-8"?>
<!-- Generator: Adobe Illustrator 16.0.0, SVG Export Plug-In . SVG Version: 6.00 Build 0)  -->
<!DOCTYPE svg PUBLIC "-//W3C//DTD SVG 1.1//EN" "http://www.w3.org/Graphics/SVG/1.1/DTD/svg11.dtd">
<svg version="1.1" id="Layer_1" xmlns="http://www.w3.org/2000/svg" xmlns:xlink="http://www.w3.org/1999/xlink" x="0px" y="0px"
	 width="200px" height="200px" viewBox="0 0 200 200" enable-background="new 0 0 200 200" xml:space="preserve">
<rect x="-0.5" y="-0.5" fill="#FFFFFF" stroke="#000000" stroke-miterlimit="10" width="5" height="5"/>
<rect x="9.5" y="-0.5" fill="#FFFFFF" stroke="#000000" stroke-miterlimit="10" width="5" height="5"/>
<rect x="19.5" y="-0.5" fill="#FFFFFF" stroke="#000000" stroke-miterlimit="10" width="5" height="5"/>
<rect x="29.5" y="-0.5" fill="#FFFFFF" stroke="#000000" stroke-miterlimit="10" width="5" height="5"/>
<rect x="39.5" y="-0.5" fill="#FFFFFF" stroke="#000000" stroke-miterlimit="10" width="5" height="5"/>
<rect x="49.5" y="-0.5" fill="#FFFFFF" stroke="#000000" stroke-miterlimit="10" width="5" height="5"/>
<rect x="59.5" y="-0.5" fill="#FFFFFF" stroke="#000000" stroke-miterlimit="10" width="5" height="5"/>
<rect x="69.5" y="-0.5" fill="#FFFFFF" stroke="#000000" stroke-miterlimit="10" width="5" height="5"/>
<rect x="79.5" y="-0.5" fill="#FFFFFF" stroke="#000000" stroke-miterlimit="10" width="5" height="5"/>
<rect x="89.5" y="-0.5" fill="#FFFFFF" stroke="#000000" stroke-miterlimit="10" width="5" height="5"/>
<rect x="-0.5" y="9.5" fill="#FFFFFF" stroke="#000000" stroke-miterlimit="10" width="5" height="5"/>
<rect x="9.5" y="9.5" fill="#FFFFFF" stroke="#000000" stroke-miterlimit="10" width="5" height="5"/>
<rect x="19.5" y="9.5" fill="#FFFFFF" stroke="#000000" stroke-miterlimit="10" width="5" height="5"/>
<rect x="29.5" y="9.5" fill="#FFFFFF" stroke="#000000" stroke-miterlimit="10" width="5" height="5"/>
<rect x="39.5" y="9.5" fill="#FFFFFF" stroke="#000000" stroke-miterlimit="10" width="5" height="5"/>
<rect x="49.5" y="9.5" fill="#FFFFFF" stroke="#000000" stroke-miterlimit="10" width="5" height="5"/>
<rect x="59.5" y="9.5" fill="#FFFFFF" stroke="#000000" stroke-miterlimit="10" width="5" height="5"/>
<rect x="69.5" y="9.5" fill="#FFFFFF" stroke="#000000" stroke-miterlimit="10" width="5" height="5"/>
<rect x="79.5" y="9.5" fill="#FFFFFF" stroke="#000000" stroke-miterlimit="10" width="5" height="5"/>
<rect x="89.5" y="9.5" fill="#FFFFFF" stroke="#000000" stroke-miterlimit="10" width="5" height="5"/>
<rect x="-0.5" y="19.5" fill="#FFFFFF" stroke="#000000" stroke-miterlimit="10" width="5" height="5"/>
<rect x="9.5" y="19.5" fill="#FFFFFF" stroke="#000000" stroke-miterlimit="10" width="5" height="5"/>
<rect x="19.5" y="19.5" fill="#FFFFFF" stroke="#000000" stroke-miterlimit="10" width="5" height="5"/>
<rect x="29.5" y="19.5" fill="#FFFFFF" stroke="#000000" stroke-miterlimit="10" width="5" height="5"/>
<rect x="39.5" y="19.5" fill="#FFFFFF" stroke="#000000" stroke-miterlimit="10" width="5" height="5"/>
<rect x="49.5" y="19.5" fill="#FFFFFF" stroke="#000000" stroke-miterlimit="10" width="5" height="5"/>
<rect x="59.5" y="19.5" fill="#FFFFFF" stroke="#000000" stroke-miterlimit="10" width="5" height="5"/>
<rect x="69.5" y="19.5" fill="#FFFFFF" stroke="#000000" stroke-miterlimit="10" width="5" height="5"/>
<rect x="79.5" y="19.5" fill="#FFFFFF" stroke="#000000" stroke-miterlimit="10" width="5" height="5"/>
<rect x="89.5" y="19.5" fill="#FFFFFF" stroke="#000000" stroke-miterlimit="10" width="5" height="5"/>
<rect x="-0.5" y="29.5" fill="#FFFFFF" stroke="#000000" stroke-miterlimit="10" width="5" height="5"/>
<rect x="9.5" y="29.5" fill="#FFFFFF" stroke="#000000" stroke-miterlimit="10" width="5" height="5"/>
<rect x="19.5" y="29.5" fill="#FFFFFF" stroke="#000000" stroke-miterlimit="10" width="5" height="5"/>
<rect x="29.5" y="29.5" fill="#FFFFFF" stroke="#000000" stroke-miterlimit="10" width="5" height="5"/>
<rect x="39.5" y="29.5" fill="#FFFFFF" stroke="#000000" stroke-miterlimit="10" width="5" height="5"/>
<rect x="49.5" y="29.5" fill="#FFFFFF" stroke="#000000" stroke-miterlimit="10" width="5" height="5"/>
<rect x="59.5" y="29.5" fill="#FFFFFF" stroke="#000000" stroke-miterlimit="10" width="5" height="5"/>
<rect x="69.5" y="29.5" fill="#FFFFFF" stroke="#000000" stroke-miterlimit="10" width="5" height="5"/>
<rect x="79.5" y="29.5" fill="#FFFFFF" stroke="#000000" stroke-miterlimit="10" width="5" height="5"/>
<rect x="89.5" y="29.5" fill="#FFFFFF" stroke="#000000" stroke-miterlimit="10" width="5" height="5"/>
<rect x="-0.5" y="39.5" fill="#FFFFFF" stroke="#000000" stroke-miterlimit="10" width="5" height="5"/>
<rect x="9.5" y="39.5" fill="#FFFFFF" stroke="#000000" stroke-miterlimit="10" width="5" height="5"/>
<rect x="19.5" y="39.5" fill="#FFFFFF" stroke="#000000" stroke-miterlimit="10" width="5" height="5"/>
<rect x="29.5" y="39.5" fill="#FFFFFF" stroke="#000000" stroke-miterlimit="10" width="5" height="5"/>
<rect x="39.5" y="39.5" fill="#FFFFFF" stroke="#000000" stroke-miterlimit="10" width="5" height="5"/>
<rect x="49.5" y="39.5" fill="#FFFFFF" stroke="#000000" stroke-miterlimit="10" width="5" height="5"/>
<rect x="59.5" y="39.5" fill="#FFFFFF" stroke="#000000" stroke-miterlimit="10" width="5" height="5"/>
<rect x="69.5" y="39.5" fill="#FFFFFF" stroke="#000000" stroke-miterlimit="10" width="5" height="5"/>
<rect x="79.5" y="39.5" fill="#FFFFFF" stroke="#000000" stroke-miterlimit="10" width="5" height="5"/>
<rect x="89.5" y="39.5" fill="#FFFFFF" stroke="#000000" stroke-miterlimit="10" width="5" height="5"/>
<rect x="-0.5" y="49.5" fill="#FFFFFF" stroke="#000000" stroke-miterlimit="10" width="5" height="5"/>
<rect x="9.5" y="49.5" fill="#FFFFFF" stroke="#000000" stroke-miterlimit="10" width="5" height="5"/>
<rect x="19.5" y="49.5" fill="#FFFFFF" stroke="#000000" stroke-miterlimit="10" width="5" height="5"/>
<rect x="29.5" y="49.5" fill="#FFFFFF" stroke="#000000" stroke-miterlimit="10" width="5" height="5"/>
<rect x="39.5" y="49.5" fill="#FFFFFF" stroke="#000000" stroke-miterlimit="10" width="5" height="5"/>
<rect x="49.5" y="49.5" fill="#FFFFFF" stroke="#000000" stroke-miterlimit="10" width="5" height="5"/>
<rect x="59.5" y="49.5" fill="#FFFFFF" stroke="#000000" stroke-miterlimit="10" width="5" height="5"/>
<rect x="69.5" y="49.5" fill="#FFFFFF" stroke="#000000" stroke-miterlimit="10" width="5" height="5"/>
<rect x="79.5" y="49.5" fill="#FFFFFF" stroke="#000000" stroke-miterlimit="10" width="5" height="5"/>
<rect x="89.5" y="49.5" fill="#FFFFFF" stroke="#000000" stroke-miterlimit="10" width="5" height="5"/>
<rect x="-0.5" y="59.5" fill="#FFFFFF" stroke="#000000" stroke-miterlimit="10" width="5" height="5"/>
<rect x="9.5" y="59.5" fill="#FFFFFF" stroke="#000000" stroke-miterlimit="10" width="5" height="5"/>
<rect x="19.5" y="59.5" fill="#FFFFFF" stroke="#000000" stroke-miterlimit="10" width="5" height="5"/>
<rect x="29.5" y="59.5" fill="#FFFFFF" stroke="#000000" stroke-miterlimit="10" width="5" height="5"/>
<rect x="39.5" y="59.5" fill="#FFFFFF" stroke="#000000" stroke-miterlimit="10" width="5" height="5"/>
<rect x="49.5" y="59.5" fill="#FFFFFF" stroke="#000000" stroke-miterlimit="10" width="5" height="5"/>
<rect x="59.5" y="59.5" fill="#FFFFFF" stroke="#000000" stroke-miterlimit="10" width="5" height="5"/>
<rect x="69.5" y="59.5" fill="#FFFFFF" stroke="#000000" stroke-miterlimit="10" width="5" height="5"/>
<rect x="79.5" y="59.5" fill="#FFFFFF" stroke="#000000" stroke-miterlimit="10" width="5" height="5"/>
<rect x="89.5" y="59.5" fill="#FFFFFF" stroke="#000000" stroke-miterlimit="10" width="5" height="5"/>
<rect x="-0.5" y="69.5" fill="#FFFFFF" stroke="#000000" stroke-miterlimit="10" width="5" height="5"/>
<rect x="9.5" y="69.5" fill="#FFFFFF" stroke="#000000" stroke-miterlimit="10" width="5" height="5"/>
<rect x="19.5" y="69.5" fill="#FFFFFF" stroke="#000000" stroke-miterlimit="10" width="5" height="5"/>
<rect x="29.5" y="69.5" fill="#FFFFFF" stroke="#000000" stroke-miterlimit="10" width="5" height="5"/>
<rect x="39.5" y="69.5" fill="#FFFFFF" stroke="#000000" stroke-miterlimit="10" width="5" height="5"/>
<rect x="49.5" y="69.5" fill="#FFFFFF" stroke="#000000" stroke-miterlimit="10" width="5" height="5"/>
<rect x="59.5" y="69.5" fill="#FFFFFF" stroke="#000000" stroke-miterlimit="10" width="5" height="5"/>
<rect x="69.5" y="69.5" fill="#FFFFFF" stroke="#000000" stroke-miterlimit="10" width="5" height="5"/>
<rect x="79.5" y="69.5" fill="#FFFFFF" stroke="#000000" stroke-miterlimit="10" width="5" height="5"/>
<rect x="89.5" y="69.5" fill="#FFFFFF" stroke="#000000" stroke-miterlimit="10" width="5" height="5"/>
<rect x="-0.5" y="79.5" fill="#FFFFFF" stroke="#000000" stroke-miterlimit="10" width="5" height="5"/>
<rect x="9.5" y="79.5" fill="#FFFFFF" stroke="#000000" stroke-miterlimit="10" width="5" height="5"/>
<rect x="19.5" y="79.5" fill="#FFFFFF" stroke="#000000" stroke-miterlimit="10" width="5" height="5"/>
<rect x="29.5" y="79.5" fill="#FFFFFF" stroke="#000000" stroke-miterlimit="10" width="5" height="5"/>
<rect x="39.5" y="79.5" fill="#FFFFFF" stroke="#000000" stroke-miterlimit="10" width="5" height="5"/>
<rect x="49.5" y="79.5" fill="#FFFFFF" stroke="#000000" stroke-miterlimit="10" width="5" height="5"/>
<rect x="59.5" y="79.5" fill="#FFFFFF" stroke="#000000" stroke-miterlimit="10" width="5" height="5"/>
<rect x="69.5" y="79.5" fill="#FFFFFF" stroke="#000000" stroke-miterlimit="10" width="5" height="5"/>
<rect x="79.5" y="79.5" fill="#FFFFFF" stroke="#000000" stroke-miterlimit="10" width="5" height="5"/>
<rect x="89.5" y="79.5" fill="#FFFFFF" stroke="#000000" stroke-miterlimit="10" width="5" height="5"/>
<rect x="-0.5" y="89.5" fill="#FFFFFF" stroke="#000000" stroke-miterlimit="10" width="5" height="5"/>
<rect x="9.5" y="89.5" fill="#FFFFFF" stroke="#000000" stroke-miterlimit="10" width="5" height="5"/>
<rect x="19.5" y="89.5" fill="#FFFFFF" stroke="#000000" stroke-miterlimit="10" width="5" height="5"/>
<rect x="29.5" y="89.5" fill="#FFFFFF" stroke="#000000" stroke-miterlimit="10" width="5" height="5"/>
<rect x="39.5" y="89.5" fill="#FFFFFF" stroke="#000000" stroke-miterlimit="10" width="5" height="5"/>
<rect x="49.5" y="89.5" fill="#FFFFFF" stroke="#000000" stroke-miterlimit="10" width="5" height="5"/>
<rect x="59.5" y="89.5" fill="#FFFFFF" stroke="#000000" stroke-miterlimit="10" width="5" height="5"/>
<rect x="69.5" y="89.5" fill="#FFFFFF" stroke="#000000" stroke-miterlimit="10" width="5" height="5"/>
<rect x="79.5" y="89.5" fill="#FFFFFF" stroke="#000000" stroke-miterlimit="10" width="5" height="5"/>
<rect x="89.5" y="89.5" fill="#FFFFFF" stroke="#000000" stroke-miterlimit="10" width="5" height="5"/>
<rect x="99.5" y="-0.5" fill="#FFFFFF" stroke="#000000" stroke-miterlimit="10" width="5" height="5"/>
<rect x="109.5" y="-0.5" fill="#FFFFFF" stroke="#000000" stroke-miterlimit="10" width="5" height="5"/>
<rect x="119.5" y="-0.5" fill="#FFFFFF" stroke="#000000" stroke-miterlimit="10" width="5" height="5"/>
<rect x="129.5" y="-0.5" fill="#FFFFFF" stroke="#000000" stroke-miterlimit="10" width="5" height="5"/>
<rect x="139.5" y="-0.5" fill="#FFFFFF" stroke="#000000" stroke-miterlimit="10" width="5" height="5"/>
<rect x="149.5" y="-0.5" fill="#FFFFFF" stroke="#000000" stroke-miterlimit="10" width="5" height="5"/>
<rect x="159.5" y="-0.5" fill="#FFFFFF" stroke="#000000" stroke-miterlimit="10" width="5" height="5"/>
<rect x="169.5" y="-0.5" fill="#FFFFFF" stroke="#000000" stroke-miterlimit="10" width="5" height="5"/>
<rect x="179.5" y="-0.5" fill="#FFFFFF" stroke="#000000" stroke-miterlimit="10" width="5" height="5"/>
<rect x="189.5" y="-0.5" fill="#FFFFFF" stroke="#000000" stroke-miterlimit="10" width="5" height="5"/>
<rect x="99.5" y="9.5" fill="#FFFFFF" stroke="#000000" stroke-miterlimit="10" width="5" height="5"/>
<rect x="109.5" y="9.5" fill="#FFFFFF" stroke="#000000" stroke-miterlimit="10" width="5" height="5"/>
<rect x="119.5" y="9.5" fill="#FFFFFF" stroke="#000000" stroke-miterlimit="10" width="5" height="5"/>
<rect x="129.5" y="9.5" fill="#FFFFFF" stroke="#000000" stroke-miterlimit="10" width="5" height="5"/>
<rect x="139.5" y="9.5" fill="#FFFFFF" stroke="#000000" stroke-miterlimit="10" width="5" height="5"/>
<rect x="149.5" y="9.5" fill="#FFFFFF" stroke="#000000" stroke-miterlimit="10" width="5" height="5"/>
<rect x="159.5" y="9.5" fill="#FFFFFF" stroke="#000000" stroke-miterlimit="10" width="5" height="5"/>
<rect x="169.5" y="9.5" fill="#FFFFFF" stroke="#000000" stroke-miterlimit="10" width="5" height="5"/>
<rect x="179.5" y="9.5" fill="#FFFFFF" stroke="#000000" stroke-miterlimit="10" width="5" height="5"/>
<rect x="189.5" y="9.5" fill="#FFFFFF" stroke="#000000" stroke-miterlimit="10" width="5" height="5"/>
<rect x="99.5" y="19.5" fill="#FFFFFF" stroke="#000000" stroke-miterlimit="10" width="5" height="5"/>
<rect x="109.5" y="19.5" fill="#FFFFFF" stroke="#000000" stroke-miterlimit="10" width="5" height="5"/>
<rect x="119.5" y="19.5" fill="#FFFFFF" stroke="#000000" stroke-miterlimit="10" width="5" height="5"/>
<rect x="129.5" y="19.5" fill="#FFFFFF" stroke="#000000" stroke-miterlimit="10" width="5" height="5"/>
<rect x="139.5" y="19.5" fill="#FFFFFF" stroke="#000000" stroke-miterlimit="10" width="5" height="5"/>
<rect x="149.5" y="19.5" fill="#FFFFFF" stroke="#000000" stroke-miterlimit="10" width="5" height="5"/>
<rect x="159.5" y="19.5" fill="#FFFFFF" stroke="#000000" stroke-miterlimit="10" width="5" height="5"/>
<rect x="169.5" y="19.5" fill="#FFFFFF" stroke="#000000" stroke-miterlimit="10" width="5" height="5"/>
<rect x="179.5" y="19.5" fill="#FFFFFF" stroke="#000000" stroke-miterlimit="10" width="5" height="5"/>
<rect x="189.5" y="19.5" fill="#FFFFFF" stroke="#000000" stroke-miterlimit="10" width="5" height="5"/>
<rect x="99.5" y="29.5" fill="#FFFFFF" stroke="#000000" stroke-miterlimit="10" width="5" height="5"/>
<rect x="109.5" y="29.5" fill="#FFFFFF" stroke="#000000" stroke-miterlimit="10" width="5" height="5"/>
<rect x="119.5" y="29.5" fill="#FFFFFF" stroke="#000000" stroke-miterlimit="10" width="5" height="5"/>
<rect x="129.5" y="29.5" fill="#FFFFFF" stroke="#000000" stroke-miterlimit="10" width="5" height="5"/>
<rect x="139.5" y="29.5" fill="#FFFFFF" stroke="#000000" stroke-miterlimit="10" width="5" height="5"/>
<rect x="149.5" y="29.5" fill="#FFFFFF" stroke="#000000" stroke-miterlimit="10" width="5" height="5"/>
<rect x="159.5" y="29.5" fill="#FFFFFF" stroke="#000000" stroke-miterlimit="10" width="5" height="5"/>
<rect x="169.5" y="29.5" fill="#FFFFFF" stroke="#000000" stroke-miterlimit="10" width="5" height="5"/>
<rect x="179.5" y="29.5" fill="#FFFFFF" stroke="#000000" stroke-miterlimit="10" width="5" height="5"/>
<rect x="189.5" y="29.5" fill="#FFFFFF" stroke="#000000" stroke-miterlimit="10" width="5" height="5"/>
<rect x="99.5" y="39.5" fill="#FFFFFF" stroke="#000000" stroke-miterlimit="10" width="5" height="5"/>
<rect x="109.5" y="39.5" fill="#FFFFFF" stroke="#000000" stroke-miterlimit="10" width="5" height="5"/>
<rect x="119.5" y="39.5" fill="#FFFFFF" stroke="#000000" stroke-miterlimit="10" width="5" height="5"/>
<rect x="129.5" y="39.5" fill="#FFFFFF" stroke="#000000" stroke-miterlimit="10" width="5" height="5"/>
<rect x="139.5" y="39.5" fill="#FFFFFF" stroke="#000000" stroke-miterlimit="10" width="5" height="5"/>
<rect x="149.5" y="39.5" fill="#FFFFFF" stroke="#000000" stroke-miterlimit="10" width="5" height="5"/>
<rect x="159.5" y="39.5" fill="#FFFFFF" stroke="#000000" stroke-miterlimit="10" width="5" height="5"/>
<rect x="169.5" y="39.5" fill="#FFFFFF" stroke="#000000" stroke-miterlimit="10" width="5" height="5"/>
<rect x="179.5" y="39.5" fill="#FFFFFF" stroke="#000000" stroke-miterlimit="10" width="5" height="5"/>
<rect x="189.5" y="39.5" fill="#FFFFFF" stroke="#000000" stroke-miterlimit="10" width="5" height="5"/>
<rect x="99.5" y="49.5" fill="#FFFFFF" stroke="#000000" stroke-miterlimit="10" width="5" height="5"/>
<rect x="109.5" y="49.5" fill="#FFFFFF" stroke="#000000" stroke-miterlimit="10" width="5" height="5"/>
<rect x="119.5" y="49.5" fill="#FFFFFF" stroke="#000000" stroke-miterlimit="10" width="5" height="5"/>
<rect x="129.5" y="49.5" fill="#FFFFFF" stroke="#000000" stroke-miterlimit="10" width="5" height="5"/>
<rect x="139.5" y="49.5" fill="#FFFFFF" stroke="#000000" stroke-miterlimit="10" width="5" height="5"/>
<rect x="149.5" y="49.5" fill="#FFFFFF" stroke="#000000" stroke-miterlimit="10" width="5" height="5"/>
<rect x="159.5" y="49.5" fill="#FFFFFF" stroke="#000000" stroke-miterlimit="10" width="5" height="5"/>
<rect x="169.5" y="49.5" fill="#FFFFFF" stroke="#000000" stroke-miterlimit="10" width="5" height="5"/>
<rect x="179.5" y="49.5" fill="#FFFFFF" stroke="#000000" stroke-miterlimit="10" width="5" height="5"/>
<rect x="189.5" y="49.5" fill="#FFFFFF" stroke="#000000" stroke-miterlimit="10" width="5" height="5"/>
<rect x="99.5" y="59.5" fill="#FFFFFF" stroke="#000000" stroke-miterlimit="10" width="5" height="5"/>
<rect x="109.5" y="59.5" fill="#FFFFFF" stroke="#000000" stroke-miterlimit="10" width="5" height="5"/>
<rect x="119.5" y="59.5" fill="#FFFFFF" stroke="#000000" stroke-miterlimit="10" width="5" height="5"/>
<rect x="129.5" y="59.5" fill="#FFFFFF" stroke="#000000" stroke-miterlimit="10" width="5" height="5"/>
<rect x="139.5" y="59.5" fill="#FFFFFF" stroke="#000000" stroke-miterlimit="10" width="5" height="5"/>
<rect x="149.5" y="59.5" fill="#FFFFFF" stroke="#000000" stroke-miterlimit="10" width="5" height="5"/>
<rect x="159.5" y="59.5" fill="#FFFFFF" stroke="#000000" stroke-miterlimit="10" width="5" height="5"/>
<rect x="169.5" y="59.5" fill="#FFFFFF" stroke="#000000" stroke-miterlimit="10" width="5" height="5"/>
<rect x="179.5" y="59.5" fill="#FFFFFF" stroke="#000000" stroke-miterlimit="10" width="5" height="5"/>
<rect x="189.5" y="59.5" fill="#FFFFFF" stroke="#000000" stroke-miterlimit="10" width="5" height="5"/>
<rect x="99.5" y="69.5" fill="#FFFFFF" stroke="#000000" stroke-miterlimit="10" width="5" height="5"/>
<rect x="109.5" y="69.5" fill="#FFFFFF" stroke="#000000" stroke-miterlimit="10" width="5" height="5"/>
<rect x="119.5" y="69.5" fill="#FFFFFF" stroke="#000000" stroke-miterlimit="10" width="5" height="5"/>
<rect x="129.5" y="69.5" fill="#FFFFFF" stroke="#000000" stroke-miterlimit="10" width="5" height="5"/>
<rect x="139.5" y="69.5" fill="#FFFFFF" stroke="#000000" stroke-miterlimit="10" width="5" height="5"/>
<rect x="149.5" y="69.5" fill="#FFFFFF" stroke="#000000" stroke-miterlimit="10" width="5" height="5"/>
<rect x="159.5" y="69.5" fill="#FFFFFF" stroke="#000000" stroke-miterlimit="10" width="5" height="5"/>
<rect x="169.5" y="69.5" fill="#FFFFFF" stroke="#000000" stroke-miterlimit="10" width="5" height="5"/>
<rect x="179.5" y="69.5" fill="#FFFFFF" stroke="#000000" stroke-miterlimit="10" width="5" height="5"/>
<rect x="189.5" y="69.5" fill="#FFFFFF" stroke="#000000" stroke-miterlimit="10" width="5" height="5"/>
<rect x="99.5" y="79.5" fill="#FFFFFF" stroke="#000000" stroke-miterlimit="10" width="5" height="5"/>
<rect x="109.5" y="79.5" fill="#FFFFFF" stroke="#000000" stroke-miterlimit="10" width="5" height="5"/>
<rect x="119.5" y="79.5" fill="#FFFFFF" stroke="#000000" stroke-miterlimit="10" width="5" height="5"/>
<rect x="129.5" y="79.5" fill="#FFFFFF" stroke="#000000" stroke-miterlimit="10" width="5" height="5"/>
<rect x="139.5" y="79.5" fill="#FFFFFF" stroke="#000000" stroke-miterlimit="10" width="5" height="5"/>
<rect x="149.5" y="79.5" fill="#FFFFFF" stroke="#000000" stroke-miterlimit="10" width="5" height="5"/>
<rect x="159.5" y="79.5" fill="#FFFFFF" stroke="#000000" stroke-miterlimit="10" width="5" height="5"/>
<rect x="169.5" y="79.5" fill="#FFFFFF" stroke="#000000" stroke-miterlimit="10" width="5" height="5"/>
<rect x="179.5" y="79.5" fill="#FFFFFF" stroke="#000000" stroke-miterlimit="10" width="5" height="5"/>
<rect x="189.5" y="79.5" fill="#FFFFFF" stroke="#000000" stroke-miterlimit="10" width="5" height="5"/>
<rect x="99.5" y="89.5" fill="#FFFFFF" stroke="#000000" stroke-miterlimit="10" width="5" height="5"/>
<rect x="109.5" y="89.5" fill="#FFFFFF" stroke="#000000" stroke-miterlimit="10" width="5" height="5"/>
<rect x="119.5" y="89.5" fill="#FFFFFF" stroke="#000000" stroke-miterlimit="10" width="5" height="5"/>
<rect x="129.5" y="89.5" fill="#FFFFFF" stroke="#000000" stroke-miterlimit="10" width="5" height="5"/>
<rect x="139.5" y="89.5" fill="#FFFFFF" stroke="#000000" stroke-miterlimit="10" width="5" height="5"/>
<rect x="149.5" y="89.5" fill="#FFFFFF" stroke="#000000" stroke-miterlimit="10" width="5" height="5"/>
<rect x="159.5" y="89.5" fill="#FFFFFF" stroke="#000000" stroke-miterlimit="10" width="5" height="5"/>
<rect x="169.5" y="89.5" fill="#FFFFFF" stroke="#000000" stroke-miterlimit="10" width="5" height="5"/>
<rect x="179.5" y="89.5" fill="#FFFFFF" stroke="#000000" stroke-miterlimit="10" width="5" height="5"/>
<rect x="189.5" y="89.5" fill="#FFFFFF" stroke="#000000" stroke-miterlimit="10" width="5" height="5"/>
<rect x="-0.5" y="99.5" fill="#FFFFFF" stroke="#000000" stroke-miterlimit="10" width="5" height="5"/>
<rect x="9.5" y="99.5" fill="#FFFFFF" stroke="#000000" stroke-miterlimit="10" width="5" height="5"/>
<rect x="19.5" y="99.5" fill="#FFFFFF" stroke="#000000" stroke-miterlimit="10" width="5" height="5"/>
<rect x="29.5" y="99.5" fill="#FFFFFF" stroke="#000000" stroke-miterlimit="10" width="5" height="5"/>
<rect x="39.5" y="99.5" fill="#FFFFFF" stroke="#000000" stroke-miterlimit="10" width="5" height="5"/>
<rect x="49.5" y="99.5" fill="#FFFFFF" stroke="#000000" stroke-miterlimit="10" width="5" height="5"/>
<rect x="59.5" y="99.5" fill="#FFFFFF" stroke="#000000" stroke-miterlimit="10" width="5" height="5"/>
<rect x="69.5" y="99.5" fill="#FFFFFF" stroke="#000000" stroke-miterlimit="10" width="5" height="5"/>
<rect x="79.5" y="99.5" fill="#FFFFFF" stroke="#000000" stroke-miterlimit="10" width="5" height="5"/>
<rect x="89.5" y="99.5" fill="#FFFFFF" stroke="#000000" stroke-miterlimit="10" width="5" height="5"/>
<rect x="-0.5" y="109.5" fill="#FFFFFF" stroke="#000000" stroke-miterlimit="10" width="5" height="5"/>
<rect x="9.5" y="109.5" fill="#FFFFFF" stroke="#000000" stroke-miterlimit="10" width="5" height="5"/>
<rect x="19.5" y="109.5" fill="#FFFFFF" stroke="#000000" stroke-miterlimit="10" width="5" height="5"/>
<rect x="29.5" y="109.5" fill="#FFFFFF" stroke="#000000" stroke-miterlimit="10" width="5" height="5"/>
<rect x="39.5" y="109.5" fill="#FFFFFF" stroke="#000000" stroke-miterlimit="10" width="5" height="5"/>
<rect x="49.5" y="109.5" fill="#FFFFFF" stroke="#000000" stroke-miterlimit="10" width="5" height="5"/>
<rect x="59.5" y="109.5" fill="#FFFFFF" stroke="#000000" stroke-miterlimit="10" width="5" height="5"/>
<rect x="69.5" y="109.5" fill="#FFFFFF" stroke="#000000" stroke-miterlimit="10" width="5" height="5"/>
<rect x="79.5" y="109.5" fill="#FFFFFF" stroke="#000000" stroke-miterlimit="10" width="5" height="5"/>
<rect x="89.5" y="109.5" fill="#FFFFFF" stroke="#000000" stroke-miterlimit="10" width="5" height="5"/>
<rect x="-0.5" y="119.5" fill="#FFFFFF" stroke="#000000" stroke-miterlimit="10" width="5" height="5"/>
<rect x="9.5" y="119.5" fill="#FFFFFF" stroke="#000000" stroke-miterlimit="10" width="5" height="5"/>
<rect x="19.5" y="119.5" fill="#FFFFFF" stroke="#000000" stroke-miterlimit="10" width="5" height="5"/>
<rect x="29.5" y="119.5" fill="#FFFFFF" stroke="#000000" stroke-miterlimit="10" width="5" height="5"/>
<rect x="39.5" y="119.5" fill="#FFFFFF" stroke="#000000" stroke-miterlimit="10" width="5" height="5"/>
<rect x="49.5" y="119.5" fill="#FFFFFF" stroke="#000000" stroke-miterlimit="10" width="5" height="5"/>
<rect x="59.5" y="119.5" fill="#FFFFFF" stroke="#000000" stroke-miterlimit="10" width="5" height="5"/>
<rect x="69.5" y="119.5" fill="#FFFFFF" stroke="#000000" stroke-miterlimit="10" width="5" height="5"/>
<rect x="79.5" y="119.5" fill="#FFFFFF" stroke="#000000" stroke-miterlimit="10" width="5" height="5"/>
<rect x="89.5" y="119.5" fill="#FFFFFF" stroke="#000000" stroke-miterlimit="10" width="5" height="5"/>
<rect x="-0.5" y="129.5" fill="#FFFFFF" stroke="#000000" stroke-miterlimit="10" width="5" height="5"/>
<rect x="9.5" y="129.5" fill="#FFFFFF" stroke="#000000" stroke-miterlimit="10" width="5" height="5"/>
<rect x="19.5" y="129.5" fill="#FFFFFF" stroke="#000000" stroke-miterlimit="10" width="5" height="5"/>
<rect x="29.5" y="129.5" fill="#FFFFFF" stroke="#000000" stroke-miterlimit="10" width="5" height="5"/>
<rect x="39.5" y="129.5" fill="#FFFFFF" stroke="#000000" stroke-miterlimit="10" width="5" height="5"/>
<rect x="49.5" y="129.5" fill="#FFFFFF" stroke="#000000" stroke-miterlimit="10" width="5" height="5"/>
<rect x="59.5" y="129.5" fill="#FFFFFF" stroke="#000000" stroke-miterlimit="10" width="5" height="5"/>
<rect x="69.5" y="129.5" fill="#FFFFFF" stroke="#000000" stroke-miterlimit="10" width="5" height="5"/>
<rect x="79.5" y="129.5" fill="#FFFFFF" stroke="#000000" stroke-miterlimit="10" width="5" height="5"/>
<rect x="89.5" y="129.5" fill="#FFFFFF" stroke="#000000" stroke-miterlimit="10" width="5" height="5"/>
<rect x="-0.5" y="139.5" fill="#FFFFFF" stroke="#000000" stroke-miterlimit="10" width="5" height="5"/>
<rect x="9.5" y="139.5" fill="#FFFFFF" stroke="#000000" stroke-miterlimit="10" width="5" height="5"/>
<rect x="19.5" y="139.5" fill="#FFFFFF" stroke="#000000" stroke-miterlimit="10" width="5" height="5"/>
<rect x="29.5" y="139.5" fill="#FFFFFF" stroke="#000000" stroke-miterlimit="10" width="5" height="5"/>
<rect x="39.5" y="139.5" fill="#FFFFFF" stroke="#000000" stroke-miterlimit="10" width="5" height="5"/>
<rect x="49.5" y="139.5" fill="#FFFFFF" stroke="#000000" stroke-miterlimit="10" width="5" height="5"/>
<rect x="59.5" y="139.5" fill="#FFFFFF" stroke="#000000" stroke-miterlimit="10" width="5" height="5"/>
<rect x="69.5" y="139.5" fill="#FFFFFF" stroke="#000000" stroke-miterlimit="10" width="5" height="5"/>
<rect x="79.5" y="139.5" fill="#FFFFFF" stroke="#000000" stroke-miterlimit="10" width="5" height="5"/>
<rect x="89.5" y="139.5" fill="#FFFFFF" stroke="#000000" stroke-miterlimit="10" width="5" height="5"/>
<rect x="-0.5" y="149.5" fill="#FFFFFF" stroke="#000000" stroke-miterlimit="10" width="5" height="5"/>
<rect x="9.5" y="149.5" fill="#FFFFFF" stroke="#000000" stroke-miterlimit="10" width="5" height="5"/>
<rect x="19.5" y="149.5" fill="#FFFFFF" stroke="#000000" stroke-miterlimit="10" width="5" height="5"/>
<rect x="29.5" y="149.5" fill="#FFFFFF" stroke="#000000" stroke-miterlimit="10" width="5" height="5"/>
<rect x="39.5" y="149.5" fill="#FFFFFF" stroke="#000000" stroke-miterlimit="10" width="5" height="5"/>
<rect x="49.5" y="149.5" fill="#FFFFFF" stroke="#000000" stroke-miterlimit="10" width="5" height="5"/>
<rect x="59.5" y="149.5" fill="#FFFFFF" stroke="#000000" stroke-miterlimit="10" width="5" height="5"/>
<rect x="69.5" y="149.5" fill="#FFFFFF" stroke="#000000" stroke-miterlimit="10" width="5" height="5"/>
<rect x="79.5" y="149.5" fill="#FFFFFF" stroke="#000000" stroke-miterlimit="10" width="5" height="5"/>
<rect x="89.5" y="149.5" fill="#FFFFFF" stroke="#000000" stroke-miterlimit="10" width="5" height="5"/>
<rect x="-0.5" y="159.5" fill="#FFFFFF" stroke="#000000" stroke-miterlimit="10" width="5" height="5"/>
<rect x="9.5" y="159.5" fill="#FFFFFF" stroke="#000000" stroke-miterlimit="10" width="5" height="5"/>
<rect x="19.5" y="159.5" fill="#FFFFFF" stroke="#000000" stroke-miterlimit="10" width="5" height="5"/>
<rect x="29.5" y="159.5" fill="#FFFFFF" stroke="#000000" stroke-miterlimit="10" width="5" height="5"/>
<rect x="39.5" y="159.5" fill="#FFFFFF" stroke="#000000" stroke-miterlimit="10" width="5" height="5"/>
<rect x="49.5" y="159.5" fill="#FFFFFF" stroke="#000000" stroke-miterlimit="10" width="5" height="5"/>
<rect x="59.5" y="159.5" fill="#FFFFFF" stroke="#000000" stroke-miterlimit="10" width="5" height="5"/>
<rect x="69.5" y="159.5" fill="#FFFFFF" stroke="#000000" stroke-miterlimit="10" width="5" height="5"/>
<rect x="79.5" y="159.5" fill="#FFFFFF" stroke="#000000" stroke-miterlimit="10" width="5" height="5"/>
<rect x="89.5" y="159.5" fill="#FFFFFF" stroke="#000000" stroke-miterlimit="10" width="5" height="5"/>
<rect x="-0.5" y="169.5" fill="#FFFFFF" stroke="#000000" stroke-miterlimit="10" width="5" height="5"/>
<rect x="9.5" y="169.5" fill="#FFFFFF" stroke="#000000" stroke-miterlimit="10" width="5" height="5"/>
<rect x="19.5" y="169.5" fill="#FFFFFF" stroke="#000000" stroke-miterlimit="10" width="5" height="5"/>
<rect x="29.5" y="169.5" fill="#FFFFFF" stroke="#000000" stroke-miterlimit="10" width="5" height="5"/>
<rect x="39.5" y="169.5" fill="#FFFFFF" stroke="#000000" stroke-miterlimit="10" width="5" height="5"/>
<rect x="49.5" y="169.5" fill="#FFFFFF" stroke="#000000" stroke-miterlimit="10" width="5" height="5"/>
<rect x="59.5" y="169.5" fill="#FFFFFF" stroke="#000000" stroke-miterlimit="10" width="5" height="5"/>
<rect x="69.5" y="169.5" fill="#FFFFFF" stroke="#000000" stroke-miterlimit="10" width="5" height="5"/>
<rect x="79.5" y="169.5" fill="#FFFFFF" stroke="#000000" stroke-miterlimit="10" width="5" height="5"/>
<rect x="89.5" y="169.5" fill="#FFFFFF" stroke="#000000" stroke-miterlimit="10" width="5" height="5"/>
<rect x="-0.5" y="179.5" fill="#FFFFFF" stroke="#000000" stroke-miterlimit="10" width="5" height="5"/>
<rect x="9.5" y="179.5" fill="#FFFFFF" stroke="#000000" stroke-miterlimit="10" width="5" height="5"/>
<rect x="19.5" y="179.5" fill="#FFFFFF" stroke="#000000" stroke-miterlimit="10" width="5" height="5"/>
<rect x="29.5" y="179.5" fill="#FFFFFF" stroke="#000000" stroke-miterlimit="10" width="5" height="5"/>
<rect x="39.5" y="179.5" fill="#FFFFFF" stroke="#000000" stroke-miterlimit="10" width="5" height="5"/>
<rect x="49.5" y="179.5" fill="#FFFFFF" stroke="#000000" stroke-miterlimit="10" width="5" height="5"/>
<rect x="59.5" y="179.5" fill="#FFFFFF" stroke="#000000" stroke-miterlimit="10" width="5" height="5"/>
<rect x="69.5" y="179.5" fill="#FFFFFF" stroke="#000000" stroke-miterlimit="10" width="5" height="5"/>
<rect x="79.5" y="179.5" fill="#FFFFFF" stroke="#000000" stroke-miterlimit="10" width="5" height="5"/>
<rect x="89.5" y="179.5" fill="#FFFFFF" stroke="#000000" stroke-miterlimit="10" width="5" height="5"/>
<rect x="-0.5" y="189.5" fill="#FFFFFF" stroke="#000000" stroke-miterlimit="10" width="5" height="5"/>
<rect x="9.5" y="189.5" fill="#FFFFFF" stroke="#000000" stroke-miterlimit="10" width="5" height="5"/>
<rect x="19.5" y="189.5" fill="#FFFFFF" stroke="#000000" stroke-miterlimit="10" width="5" height="5"/>
<rect x="29.5" y="189.5" fill="#FFFFFF" stroke="#000000" stroke-miterlimit="10" width="5" height="5"/>
<rect x="39.5" y="189.5" fill="#FFFFFF" stroke="#000000" stroke-miterlimit="10" width="5" height="5"/>
<rect x="49.5" y="189.5" fill="#FFFFFF" stroke="#000000" stroke-miterlimit="10" width="5" height="5"/>
<rect x="59.5" y="189.5" fill="#FFFFFF" stroke="#000000" stroke-miterlimit="10" width="5" height="5"/>
<rect x="69.5" y="189.5" fill="#FFFFFF" stroke="#000000" stroke-miterlimit="10" width="5" height="5"/>
<rect x="79.5" y="189.5" fill="#FFFFFF" stroke="#000000" stroke-miterlimit="10" width="5" height="5"/>
<rect x="89.5" y="189.5" fill="#FFFFFF" stroke="#000000" stroke-miterlimit="10" width="5" height="5"/>
<rect x="99.5" y="99.5" fill="#FFFFFF" stroke="#000000" stroke-miterlimit="10" width="5" height="5"/>
<rect x="109.5" y="99.5" fill="#FFFFFF" stroke="#000000" stroke-miterlimit="10" width="5" height="5"/>
<rect x="119.5" y="99.5" fill="#FFFFFF" stroke="#000000" stroke-miterlimit="10" width="5" height="5"/>
<rect x="129.5" y="99.5" fill="#FFFFFF" stroke="#000000" stroke-miterlimit="10" width="5" height="5"/>
<rect x="139.5" y="99.5" fill="#FFFFFF" stroke="#000000" stroke-miterlimit="10" width="5" height="5"/>
<rect x="149.5" y="99.5" fill="#FFFFFF" stroke="#000000" stroke-miterlimit="10" width="5" height="5"/>
<rect x="159.5" y="99.5" fill="#FFFFFF" stroke="#000000" stroke-miterlimit="10" width="5" height="5"/>
<rect x="169.5" y="99.5" fill="#FFFFFF" stroke="#000000" stroke-miterlimit="10" width="5" height="5"/>
<rect x="179.5" y="99.5" fill="#FFFFFF" stroke="#000000" stroke-miterlimit="10" width="5" height="5"/>
<rect x="189.5" y="99.5" fill="#FFFFFF" stroke="#000000" stroke-miterlimit="10" width="5" height="5"/>
<rect x="99.5" y="109.5" fill="#FFFFFF" stroke="#000000" stroke-miterlimit="10" width="5" height="5"/>
<rect x="109.5" y="109.5" fill="#FFFFFF" stroke="#000000" stroke-miterlimit="10" width="5" height="5"/>
<rect x="119.5" y="109.5" fill="#FFFFFF" stroke="#000000" stroke-miterlimit="10" width="5" height="5"/>
<rect x="129.5" y="109.5" fill="#FFFFFF" stroke="#000000" stroke-miterlimit="10" width="5" height="5"/>
<rect x="139.5" y="109.5" fill="#FFFFFF" stroke="#000000" stroke-miterlimit="10" width="5" height="5"/>
<rect x="149.5" y="109.5" fill="#FFFFFF" stroke="#000000" stroke-miterlimit="10" width="5" height="5"/>
<rect x="159.5" y="109.5" fill="#FFFFFF" stroke="#000000" stroke-miterlimit="10" width="5" height="5"/>
<rect x="169.5" y="109.5" fill="#FFFFFF" stroke="#000000" stroke-miterlimit="10" width="5" height="5"/>
<rect x="179.5" y="109.5" fill="#FFFFFF" stroke="#000000" stroke-miterlimit="10" width="5" height="5"/>
<rect x="189.5" y="109.5" fill="#FFFFFF" stroke="#000000" stroke-miterlimit="10" width="5" height="5"/>
<rect x="99.5" y="119.5" fill="#FFFFFF" stroke="#000000" stroke-miterlimit="10" width="5" height="5"/>
<rect x="109.5" y="119.5" fill="#FFFFFF" stroke="#000000" stroke-miterlimit="10" width="5" height="5"/>
<rect x="119.5" y="119.5" fill="#FFFFFF" stroke="#000000" stroke-miterlimit="10" width="5" height="5"/>
<rect x="129.5" y="119.5" fill="#FFFFFF" stroke="#000000" stroke-miterlimit="10" width="5" height="5"/>
<rect x="139.5" y="119.5" fill="#FFFFFF" stroke="#000000" stroke-miterlimit="10" width="5" height="5"/>
<rect x="149.5" y="119.5" fill="#FFFFFF" stroke="#000000" stroke-miterlimit="10" width="5" height="5"/>
<rect x="159.5" y="119.5" fill="#FFFFFF" stroke="#000000" stroke-miterlimit="10" width="5" height="5"/>
<rect x="169.5" y="119.5" fill="#FFFFFF" stroke="#000000" stroke-miterlimit="10" width="5" height="5"/>
<rect x="179.5" y="119.5" fill="#FFFFFF" stroke="#000000" stroke-miterlimit="10" width="5" height="5"/>
<rect x="189.5" y="119.5" fill="#FFFFFF" stroke="#000000" stroke-miterlimit="10" width="5" height="5"/>
<rect x="99.5" y="129.5" fill="#FFFFFF" stroke="#000000" stroke-miterlimit="10" width="5" height="5"/>
<rect x="109.5" y="129.5" fill="#FFFFFF" stroke="#000000" stroke-miterlimit="10" width="5" height="5"/>
<rect x="119.5" y="129.5" fill="#FFFFFF" stroke="#000000" stroke-miterlimit="10" width="5" height="5"/>
<rect x="129.5" y="129.5" fill="#FFFFFF" stroke="#000000" stroke-miterlimit="10" width="5" height="5"/>
<rect x="139.5" y="129.5" fill="#FFFFFF" stroke="#000000" stroke-miterlimit="10" width="5" height="5"/>
<rect x="149.5" y="129.5" fill="#FFFFFF" stroke="#000000" stroke-miterlimit="10" width="5" height="5"/>
<rect x="159.5" y="129.5" fill="#FFFFFF" stroke="#000000" stroke-miterlimit="10" width="5" height="5"/>
<rect x="169.5" y="129.5" fill="#FFFFFF" stroke="#000000" stroke-miterlimit="10" width="5" height="5"/>
<rect x="179.5" y="129.5" fill="#FFFFFF" stroke="#000000" stroke-miterlimit="10" width="5" height="5"/>
<rect x="189.5" y="129.5" fill="#FFFFFF" stroke="#000000" stroke-miterlimit="10" width="5" height="5"/>
<rect x="99.5" y="139.5" fill="#FFFFFF" stroke="#000000" stroke-miterlimit="10" width="5" height="5"/>
<rect x="109.5" y="139.5" fill="#FFFFFF" stroke="#000000" stroke-miterlimit="10" width="5" height="5"/>
<rect x="119.5" y="139.5" fill="#FFFFFF" stroke="#000000" stroke-miterlimit="10" width="5" height="5"/>
<rect x="129.5" y="139.5" fill="#FFFFFF" stroke="#000000" stroke-miterlimit="10" width="5" height="5"/>
<rect x="139.5" y="139.5" fill="#FFFFFF" stroke="#000000" stroke-miterlimit="10" width="5" height="5"/>
<rect x="149.5" y="139.5" fill="#FFFFFF" stroke="#000000" stroke-miterlimit="10" width="5" height="5"/>
<rect x="159.5" y="139.5" fill="#FFFFFF" stroke="#000000" stroke-miterlimit="10" width="5" height="5"/>
<rect x="169.5" y="139.5" fill="#FFFFFF" stroke="#000000" stroke-miterlimit="10" width="5" height="5"/>
<rect x="179.5" y="139.5" fill="#FFFFFF" stroke="#000000" stroke-miterlimit="10" width="5" height="5"/>
<rect x="189.5" y="139.5" fill="#FFFFFF" stroke="#000000" stroke-miterlimit="10" width="5" height="5"/>
<rect x="99.5" y="149.5" fill="#FFFFFF" stroke="#000000" stroke-miterlimit="10" width="5" height="5"/>
<rect x="109.5" y="149.5" fill="#FFFFFF" stroke="#000000" stroke-miterlimit="10" width="5" height="5"/>
<rect x="119.5" y="149.5" fill="#FFFFFF" stroke="#000000" stroke-miterlimit="10" width="5" height="5"/>
<rect x="129.5" y="149.5" fill="#FFFFFF" stroke="#000000" stroke-miterlimit="10" width="5" height="5"/>
<rect x="139.5" y="149.5" fill="#FFFFFF" stroke="#000000" stroke-miterlimit="10" width="5" height="5"/>
<rect x="149.5" y="149.5" fill="#FFFFFF" stroke="#000000" stroke-miterlimit="10" width="5" height="5"/>
<rect x="159.5" y="149.5" fill="#FFFFFF" stroke="#000000" stroke-miterlimit="10" width="5" height="5"/>
<rect x="169.5" y="149.5" fill="#FFFFFF" stroke="#000000" stroke-miterlimit="10" width="5" height="5"/>
<rect x="179.5" y="149.5" fill="#FFFFFF" stroke="#000000" stroke-miterlimit="10" width="5" height="5"/>
<rect x="189.5" y="149.5" fill="#FFFFFF" stroke="#000000" stroke-miterlimit="10" width="5" height="5"/>
<rect x="99.5" y="159.5" fill="#FFFFFF" stroke="#000000" stroke-miterlimit="10" width="5" height="5"/>
<rect x="109.5" y="159.5" fill="#FFFFFF" stroke="#000000" stroke-miterlimit="10" width="5" height="5"/>
<rect x="119.5" y="159.5" fill="#FFFFFF" stroke="#000000" stroke-miterlimit="10" width="5" height="5"/>
<rect x="129.5" y="159.5" fill="#FFFFFF" stroke="#000000" stroke-miterlimit="10" width="5" height="5"/>
<rect x="139.5" y="159.5" fill="#FFFFFF" stroke="#000000" stroke-miterlimit="10" width="5" height="5"/>
<rect x="149.5" y="159.5" fill="#FFFFFF" stroke="#000000" stroke-miterlimit="10" width="5" height="5"/>
<rect x="159.5" y="159.5" fill="#FFFFFF" stroke="#000000" stroke-miterlimit="10" width="5" height="5"/>
<rect x="169.5" y="159.5" fill="#FFFFFF" stroke="#000000" stroke-miterlimit="10" width="5" height="5"/>
<rect x="179.5" y="159.5" fill="#FFFFFF" stroke="#000000" stroke-miterlimit="10" width="5" height="5"/>
<rect x="189.5" y="159.5" fill="#FFFFFF" stroke="#000000" stroke-miterlimit="10" width="5" height="5"/>
<rect x="99.5" y="169.5" fill="#FFFFFF" stroke="#000000" stroke-miterlimit="10" width="5" height="5"/>
<rect x="109.5" y="169.5" fill="#FFFFFF" stroke="#000000" stroke-miterlimit="10" width="5" height="5"/>
<rect x="119.5" y="169.5" fill="#FFFFFF" stroke="#000000" stroke-miterlimit="10" width="5" height="5"/>
<rect x="129.5" y="169.5" fill="#FFFFFF" stroke="#000000" stroke-miterlimit="10" width="5" height="5"/>
<rect x="139.5" y="169.5" fill="#FFFFFF" stroke="#000000" stroke-miterlimit="10" width="5" height="5"/>
<rect x="149.5" y="169.5" fill="#FFFFFF" stroke="#000000" stroke-miterlimit="10" width="5" height="5"/>
<rect x="159.5" y="169.5" fill="#FFFFFF" stroke="#000000" stroke-miterlimit="10" width="5" height="5"/>
<rect x="169.5" y="169.5" fill="#FFFFFF" stroke="#000000" stroke-miterlimit="10" width="5" height="5"/>
<rect x="179.5" y="169.5" fill="#FFFFFF" stroke="#000000" stroke-miterlimit="10" width="5" height="5"/>
<rect x="189.5" y="169.5" fill="#FFFFFF" stroke="#000000" stroke-miterlimit="10" width="5" height="5"/>
<rect x="99.5" y="179.5" fill="#FFFFFF" stroke="#000000" stroke-miterlimit="10" width="5" height="5"/>
<rect x="109.5" y="179.5" fill="#FFFFFF" stroke="#000000" stroke-miterlimit="10" width="5" height="5"/>
<rect x="119.5" y="179.5" fill="#FFFFFF" stroke="#000000" stroke-miterlimit="10" width="5" height="5"/>
<rect x="129.5" y="179.5" fill="#FFFFFF" stroke="#000000" stroke-miterlimit="10" width="5" height="5"/>
<rect x="139.5" y="179.5" fill="#FFFFFF" stroke="#000000" stroke-miterlimit="10" width="5" height="5"/>
<rect x="149.5" y="179.5" fill="#FFFFFF" stroke="#000000" stroke-miterlimit="10" width="5" height="5"/>
<rect x="159.5" y="179.5" fill="#FFFFFF" stroke="#000000" stroke-miterlimit="10" width="5" height="5"/>
<rect x="169.5" y="179.5" fill="#FFFFFF" stroke="#000000" stroke-miterlimit="10" width="5" height="5"/>
<rect x="179.5" y="179.5" fill="#FFFFFF" stroke="#000000" stroke-miterlimit="10" width="5" height="5"/>
<rect x="189.5" y="179.5" fill="#FFFFFF" stroke="#000000" stroke-miterlimit="10" width="5" height="5"/>
<rect x="99.5" y="189.5" fill="#FFFFFF" stroke="#000000" stroke-miterlimit="10" width="5" height="5"/>
<rect x="109.5" y="189.5" fill="#FFFFFF" stroke="#000000" stroke-miterlimit="10" width="5" height="5"/>
<rect x="119.5" y="189.5" fill="#FFFFFF" stroke="#000000" stroke-miterlimit="10" width="5" height="5"/>
<rect x="129.5" y="189.5" fill="#FFFFFF" stroke="#000000" stroke-miterlimit="10" width="5" height="5"/>
<rect x="139.5" y="189.5" fill="#FFFFFF" stroke="#000000" stroke-miterlimit="10" width="5" height="5"/>
<rect x="149.5" y="189.5" fill="#FFFFFF" stroke="#000000" stroke-miterlimit="10" width="5" height="5"/>
<rect x="159.5" y="189.5" fill="#FFFFFF" stroke="#000000" stroke-miterlimit="10" width="5" height="5"/>
<rect x="169.5" y="189.5" fill="#FFFFFF" stroke="#000000" stroke-miterlimit="10" width="5" height="5"/>
<rect x="179.5" y="189.5" fill="#FFFFFF" stroke="#000000" stroke-miterlimit="10" width="5" height="5"/>
<rect x="189.5" y="189.5" fill="#FFFFFF" stroke="#000000" stroke-miterlimit="10" width="5" height="5"/>
</svg>
