<?xml version="1.0" encoding="utf-8"?>
<!-- Generator: Adobe Illustrator 16.0.0, SVG Export Plug-In . SVG Version: 6.00 Build 0)  -->
<!DOCTYPE svg PUBLIC "-//W3C//DTD SVG 1.1//EN" "http://www.w3.org/Graphics/SVG/1.1/DTD/svg11.dtd">
<svg version="1.1" id="Layer_1" xmlns="http://www.w3.org/2000/svg" xmlns:xlink="http://www.w3.org/1999/xlink" x="0px" y="0px"
	 width="200px" height="200px" viewBox="0 0 200 200" enable-background="new 0 0 200 200" xml:space="preserve">
<g>
	<rect x="67" y="3" fill="#FFFFFF" width="5" height="5"/>
	<rect x="77" y="3" fill="#FFFFFF" width="5" height="5"/>
	<rect x="87" y="3" fill="#FFFFFF" width="5" height="5"/>
	<rect x="97" y="3" fill="#FFFFFF" width="5" height="5"/>
	<rect x="107" y="3" fill="#FFFFFF" width="5" height="5"/>
	<rect x="117" y="3" fill="#FFFFFF" width="5" height="5"/>
	<rect x="57" y="13" fill="#FFFFFF" width="5" height="5"/>
	<rect x="67" y="13" fill="#FFFFFF" width="5" height="5"/>
	<rect x="77" y="13" fill="#FFFFFF" width="5" height="5"/>
	<rect x="87" y="13" fill="#FFFFFF" width="5" height="5"/>
	<rect x="97" y="13" fill="#FFFFFF" width="5" height="5"/>
	<rect x="107" y="13" fill="#FFFFFF" width="5" height="5"/>
	<rect x="117" y="13" fill="#FFFFFF" width="5" height="5"/>
	<rect x="47" y="23" fill="#FFFFFF" width="5" height="5"/>
	<rect x="57" y="23" fill="#FFFFFF" width="5" height="5"/>
	<rect x="67" y="23" fill="#FFFFFF" width="5" height="5"/>
	<rect x="77" y="23" fill="#FFFFFF" width="5" height="5"/>
	<rect x="87" y="23" fill="#FFFFFF" width="5" height="5"/>
	<rect x="97" y="23" fill="#FFFFFF" width="5" height="5"/>
	<rect x="107" y="23" fill="#FFFFFF" width="5" height="5"/>
	<rect x="117" y="23" fill="#FFFFFF" width="5" height="5"/>
	<rect x="37" y="33" fill="#FFFFFF" width="5" height="5"/>
	<rect x="47" y="33" fill="#FFFFFF" width="5" height="5"/>
	<rect x="57" y="33" fill="#FFFFFF" width="5" height="5"/>
	<rect x="67" y="33" fill="#FFFFFF" width="5" height="5"/>
	<rect x="77" y="33" fill="#FFFFFF" width="5" height="5"/>
	<rect x="87" y="33" fill="#FFFFFF" width="5" height="5"/>
	<rect x="97" y="33" fill="#FFFFFF" width="5" height="5"/>
	<rect x="107" y="33" fill="#FFFFFF" width="5" height="5"/>
	<rect x="117" y="33" fill="#FFFFFF" width="5" height="5"/>
	<rect x="27" y="43" fill="#FFFFFF" width="5" height="5"/>
	<rect x="37" y="43" fill="#FFFFFF" width="5" height="5"/>
	<rect x="47" y="43" fill="#FFFFFF" width="5" height="5"/>
	<rect x="57" y="43" fill="#FFFFFF" width="5" height="5"/>
	<rect x="67" y="43" fill="#FFFFFF" width="5" height="5"/>
	<rect x="77" y="43" fill="#FFFFFF" width="5" height="5"/>
	<rect x="87" y="43" fill="#FFFFFF" width="5" height="5"/>
	<rect x="97" y="43" fill="#FFFFFF" width="5" height="5"/>
	<rect x="107" y="43" fill="#FFFFFF" width="5" height="5"/>
	<rect x="117" y="43" fill="#FFFFFF" width="5" height="5"/>
	<rect x="27" y="53" fill="#FFFFFF" width="5" height="5"/>
	<rect x="37" y="53" fill="#FFFFFF" width="5" height="5"/>
	<rect x="47" y="53" fill="#FFFFFF" width="5" height="5"/>
	<rect x="57" y="53" fill="#FFFFFF" width="5" height="5"/>
	<rect x="67" y="53" fill="#FFFFFF" width="5" height="5"/>
	<rect x="27" y="63" fill="#FFFFFF" width="5" height="5"/>
	<rect x="37" y="63" fill="#FFFFFF" width="5" height="5"/>
	<rect x="47" y="63" fill="#FFFFFF" width="5" height="5"/>
	<rect x="57" y="63" fill="#FFFFFF" width="5" height="5"/>
	<rect x="67" y="63" fill="#FFFFFF" width="5" height="5"/>
	<rect x="27" y="73" fill="#FFFFFF" width="5" height="5"/>
	<rect x="37" y="73" fill="#FFFFFF" width="5" height="5"/>
	<rect x="47" y="73" fill="#FFFFFF" width="5" height="5"/>
	<rect x="57" y="73" fill="#FFFFFF" width="5" height="5"/>
	<rect x="67" y="73" fill="#FFFFFF" width="5" height="5"/>
	<rect x="27" y="83" fill="#FFFFFF" width="5" height="5"/>
	<rect x="37" y="83" fill="#FFFFFF" width="5" height="5"/>
	<rect x="47" y="83" fill="#FFFFFF" width="5" height="5"/>
	<rect x="57" y="83" fill="#FFFFFF" width="5" height="5"/>
	<rect x="67" y="83" fill="#FFFFFF" width="5" height="5"/>
	<rect x="27" y="93" fill="#FFFFFF" width="5" height="5"/>
	<rect x="37" y="93" fill="#FFFFFF" width="5" height="5"/>
	<rect x="47" y="93" fill="#FFFFFF" width="5" height="5"/>
	<rect x="57" y="93" fill="#FFFFFF" width="5" height="5"/>
	<rect x="67" y="93" fill="#FFFFFF" width="5" height="5"/>
	<rect x="127" y="3" fill="#FFFFFF" width="5" height="5"/>
	<rect x="137" y="3" fill="#FFFFFF" width="5" height="5"/>
	<rect x="147" y="3" fill="#FFFFFF" width="5" height="5"/>
	<rect x="157" y="3" fill="#FFFFFF" width="5" height="5"/>
	<rect x="167" y="3" fill="#FFFFFF" width="5" height="5"/>
	<rect x="127" y="13" fill="#FFFFFF" width="5" height="5"/>
	<rect x="137" y="13" fill="#FFFFFF" width="5" height="5"/>
	<rect x="147" y="13" fill="#FFFFFF" width="5" height="5"/>
	<rect x="157" y="13" fill="#FFFFFF" width="5" height="5"/>
	<rect x="127" y="23" fill="#FFFFFF" width="5" height="5"/>
	<rect x="137" y="23" fill="#FFFFFF" width="5" height="5"/>
	<rect x="147" y="23" fill="#FFFFFF" width="5" height="5"/>
	<rect x="127" y="33" fill="#FFFFFF" width="5" height="5"/>
	<rect x="137" y="33" fill="#FFFFFF" width="5" height="5"/>
	<rect x="127" y="43" fill="#FFFFFF" width="5" height="5"/>
	<rect x="27" y="103" fill="#FFFFFF" width="5" height="5"/>
	<rect x="37" y="103" fill="#FFFFFF" width="5" height="5"/>
	<rect x="47" y="103" fill="#FFFFFF" width="5" height="5"/>
	<rect x="57" y="103" fill="#FFFFFF" width="5" height="5"/>
	<rect x="67" y="103" fill="#FFFFFF" width="5" height="5"/>
	<rect x="27" y="113" fill="#FFFFFF" width="5" height="5"/>
	<rect x="37" y="113" fill="#FFFFFF" width="5" height="5"/>
	<rect x="47" y="113" fill="#FFFFFF" width="5" height="5"/>
	<rect x="57" y="113" fill="#FFFFFF" width="5" height="5"/>
	<rect x="67" y="113" fill="#FFFFFF" width="5" height="5"/>
	<rect x="27" y="123" fill="#FFFFFF" width="5" height="5"/>
	<rect x="37" y="123" fill="#FFFFFF" width="5" height="5"/>
	<rect x="47" y="123" fill="#FFFFFF" width="5" height="5"/>
	<rect x="57" y="123" fill="#FFFFFF" width="5" height="5"/>
	<rect x="67" y="123" fill="#FFFFFF" width="5" height="5"/>
	<rect x="27" y="133" fill="#FFFFFF" width="5" height="5"/>
	<rect x="37" y="133" fill="#FFFFFF" width="5" height="5"/>
	<rect x="47" y="133" fill="#FFFFFF" width="5" height="5"/>
	<rect x="57" y="133" fill="#FFFFFF" width="5" height="5"/>
	<rect x="67" y="133" fill="#FFFFFF" width="5" height="5"/>
	<rect x="27" y="143" fill="#FFFFFF" width="5" height="5"/>
	<rect x="37" y="143" fill="#FFFFFF" width="5" height="5"/>
	<rect x="47" y="143" fill="#FFFFFF" width="5" height="5"/>
	<rect x="57" y="143" fill="#FFFFFF" width="5" height="5"/>
	<rect x="67" y="143" fill="#FFFFFF" width="5" height="5"/>
	<rect x="27" y="153" fill="#FFFFFF" width="5" height="5"/>
	<rect x="37" y="153" fill="#FFFFFF" width="5" height="5"/>
	<rect x="47" y="153" fill="#FFFFFF" width="5" height="5"/>
	<rect x="57" y="153" fill="#FFFFFF" width="5" height="5"/>
	<rect x="67" y="153" fill="#FFFFFF" width="5" height="5"/>
	<rect x="77" y="153" fill="#FFFFFF" width="5" height="5"/>
	<rect x="87" y="153" fill="#FFFFFF" width="5" height="5"/>
	<rect x="97" y="153" fill="#FFFFFF" width="5" height="5"/>
	<rect x="107" y="153" fill="#FFFFFF" width="5" height="5"/>
	<rect x="117" y="153" fill="#FFFFFF" width="5" height="5"/>
	<rect x="37" y="163" fill="#FFFFFF" width="5" height="5"/>
	<rect x="47" y="163" fill="#FFFFFF" width="5" height="5"/>
	<rect x="57" y="163" fill="#FFFFFF" width="5" height="5"/>
	<rect x="67" y="163" fill="#FFFFFF" width="5" height="5"/>
	<rect x="77" y="163" fill="#FFFFFF" width="5" height="5"/>
	<rect x="87" y="163" fill="#FFFFFF" width="5" height="5"/>
	<rect x="97" y="163" fill="#FFFFFF" width="5" height="5"/>
	<rect x="107" y="163" fill="#FFFFFF" width="5" height="5"/>
	<rect x="117" y="163" fill="#FFFFFF" width="5" height="5"/>
	<rect x="47" y="173" fill="#FFFFFF" width="5" height="5"/>
	<rect x="57" y="173" fill="#FFFFFF" width="5" height="5"/>
	<rect x="67" y="173" fill="#FFFFFF" width="5" height="5"/>
	<rect x="77" y="173" fill="#FFFFFF" width="5" height="5"/>
	<rect x="87" y="173" fill="#FFFFFF" width="5" height="5"/>
	<rect x="97" y="173" fill="#FFFFFF" width="5" height="5"/>
	<rect x="107" y="173" fill="#FFFFFF" width="5" height="5"/>
	<rect x="117" y="173" fill="#FFFFFF" width="5" height="5"/>
	<rect x="57" y="183" fill="#FFFFFF" width="5" height="5"/>
	<rect x="67" y="183" fill="#FFFFFF" width="5" height="5"/>
	<rect x="77" y="183" fill="#FFFFFF" width="5" height="5"/>
	<rect x="87" y="183" fill="#FFFFFF" width="5" height="5"/>
	<rect x="97" y="183" fill="#FFFFFF" width="5" height="5"/>
	<rect x="107" y="183" fill="#FFFFFF" width="5" height="5"/>
	<rect x="117" y="183" fill="#FFFFFF" width="5" height="5"/>
	<rect x="67" y="193" fill="#FFFFFF" width="5" height="5"/>
	<rect x="77" y="193" fill="#FFFFFF" width="5" height="5"/>
	<rect x="87" y="193" fill="#FFFFFF" width="5" height="5"/>
	<rect x="97" y="193" fill="#FFFFFF" width="5" height="5"/>
	<rect x="107" y="193" fill="#FFFFFF" width="5" height="5"/>
	<rect x="117" y="193" fill="#FFFFFF" width="5" height="5"/>
	<rect x="127" y="153" fill="#FFFFFF" width="5" height="5"/>
	<rect x="127" y="163" fill="#FFFFFF" width="5" height="5"/>
	<rect x="137" y="163" fill="#FFFFFF" width="5" height="5"/>
	<rect x="127" y="173" fill="#FFFFFF" width="5" height="5"/>
	<rect x="137" y="173" fill="#FFFFFF" width="5" height="5"/>
	<rect x="147" y="173" fill="#FFFFFF" width="5" height="5"/>
	<rect x="127" y="183" fill="#FFFFFF" width="5" height="5"/>
	<rect x="137" y="183" fill="#FFFFFF" width="5" height="5"/>
	<rect x="147" y="183" fill="#FFFFFF" width="5" height="5"/>
	<rect x="157" y="183" fill="#FFFFFF" width="5" height="5"/>
	<rect x="127" y="193" fill="#FFFFFF" width="5" height="5"/>
	<rect x="137" y="193" fill="#FFFFFF" width="5" height="5"/>
	<rect x="147" y="193" fill="#FFFFFF" width="5" height="5"/>
	<rect x="157" y="193" fill="#FFFFFF" width="5" height="5"/>
	<rect x="167" y="193" fill="#FFFFFF" width="5" height="5"/>
</g>
</svg>
