<?xml version="1.0" encoding="utf-8"?>
<!-- Generator: Adobe Illustrator 16.0.0, SVG Export Plug-In . SVG Version: 6.00 Build 0)  -->
<!DOCTYPE svg PUBLIC "-//W3C//DTD SVG 1.1//EN" "http://www.w3.org/Graphics/SVG/1.1/DTD/svg11.dtd">
<svg version="1.1" id="Layer_1" xmlns="http://www.w3.org/2000/svg" xmlns:xlink="http://www.w3.org/1999/xlink" x="0px" y="0px"
	 width="200px" height="200px" viewBox="0 0 200 200" enable-background="new 0 0 200 200" xml:space="preserve">
<rect x="39" fill="#FFFFFF" width="5" height="5"/>
<rect x="49" fill="#FFFFFF" width="5" height="5"/>
<rect x="59" fill="#FFFFFF" width="5" height="5"/>
<rect x="69" fill="#FFFFFF" width="5" height="5"/>
<rect x="79" fill="#FFFFFF" width="5" height="5"/>
<rect x="89" fill="#FFFFFF" width="5" height="5"/>
<rect x="29" y="10" fill="#FFFFFF" width="5" height="5"/>
<rect x="39" y="10" fill="#FFFFFF" width="5" height="5"/>
<rect x="49" y="10" fill="#FFFFFF" width="5" height="5"/>
<rect x="59" y="10" fill="#FFFFFF" width="5" height="5"/>
<rect x="69" y="10" fill="#FFFFFF" width="5" height="5"/>
<rect x="79" y="10" fill="#FFFFFF" width="5" height="5"/>
<rect x="89" y="10" fill="#FFFFFF" width="5" height="5"/>
<rect x="19" y="20" fill="#FFFFFF" width="5" height="5"/>
<rect x="29" y="20" fill="#FFFFFF" width="5" height="5"/>
<rect x="39" y="20" fill="#FFFFFF" width="5" height="5"/>
<rect x="49" y="20" fill="#FFFFFF" width="5" height="5"/>
<rect x="59" y="20" fill="#FFFFFF" width="5" height="5"/>
<rect x="69" y="20" fill="#FFFFFF" width="5" height="5"/>
<rect x="79" y="20" fill="#FFFFFF" width="5" height="5"/>
<rect x="89" y="20" fill="#FFFFFF" width="5" height="5"/>
<rect x="9" y="30" fill="#FFFFFF" width="5" height="5"/>
<rect x="19" y="30" fill="#FFFFFF" width="5" height="5"/>
<rect x="29" y="30" fill="#FFFFFF" width="5" height="5"/>
<rect x="39" y="30" fill="#FFFFFF" width="5" height="5"/>
<rect x="49" y="30" fill="#FFFFFF" width="5" height="5"/>
<rect x="59" y="30" fill="#FFFFFF" width="5" height="5"/>
<rect x="69" y="30" fill="#FFFFFF" width="5" height="5"/>
<rect x="79" y="30" fill="#FFFFFF" width="5" height="5"/>
<rect x="89" y="30" fill="#FFFFFF" width="5" height="5"/>
<rect x="-1" y="40" fill="#FFFFFF" width="5" height="5"/>
<rect x="9" y="40" fill="#FFFFFF" width="5" height="5"/>
<rect x="19" y="40" fill="#FFFFFF" width="5" height="5"/>
<rect x="29" y="40" fill="#FFFFFF" width="5" height="5"/>
<rect x="39" y="40" fill="#FFFFFF" width="5" height="5"/>
<rect x="49" y="40" fill="#FFFFFF" width="5" height="5"/>
<rect x="59" y="40" fill="#FFFFFF" width="5" height="5"/>
<rect x="69" y="40" fill="#FFFFFF" width="5" height="5"/>
<rect x="79" y="40" fill="#FFFFFF" width="5" height="5"/>
<rect x="89" y="40" fill="#FFFFFF" width="5" height="5"/>
<rect x="-1" y="50" fill="#FFFFFF" width="5" height="5"/>
<rect x="9" y="50" fill="#FFFFFF" width="5" height="5"/>
<rect x="19" y="50" fill="#FFFFFF" width="5" height="5"/>
<rect x="29" y="50" fill="#FFFFFF" width="5" height="5"/>
<rect x="39" y="50" fill="#FFFFFF" width="5" height="5"/>
<rect x="-1" y="60" fill="#FFFFFF" width="5" height="5"/>
<rect x="9" y="60" fill="#FFFFFF" width="5" height="5"/>
<rect x="19" y="60" fill="#FFFFFF" width="5" height="5"/>
<rect x="29" y="60" fill="#FFFFFF" width="5" height="5"/>
<rect x="39" y="60" fill="#FFFFFF" width="5" height="5"/>
<rect x="-1" y="70" fill="#FFFFFF" width="5" height="5"/>
<rect x="9" y="70" fill="#FFFFFF" width="5" height="5"/>
<rect x="19" y="70" fill="#FFFFFF" width="5" height="5"/>
<rect x="29" y="70" fill="#FFFFFF" width="5" height="5"/>
<rect x="39" y="70" fill="#FFFFFF" width="5" height="5"/>
<rect x="-1" y="80" fill="#FFFFFF" width="5" height="5"/>
<rect x="9" y="80" fill="#FFFFFF" width="5" height="5"/>
<rect x="19" y="80" fill="#FFFFFF" width="5" height="5"/>
<rect x="29" y="80" fill="#FFFFFF" width="5" height="5"/>
<rect x="39" y="80" fill="#FFFFFF" width="5" height="5"/>
<rect x="-1" y="90" fill="#FFFFFF" width="5" height="5"/>
<rect x="9" y="90" fill="#FFFFFF" width="5" height="5"/>
<rect x="19" y="90" fill="#FFFFFF" width="5" height="5"/>
<rect x="29" y="90" fill="#FFFFFF" width="5" height="5"/>
<rect x="39" y="90" fill="#FFFFFF" width="5" height="5"/>
<rect x="99" fill="#FFFFFF" width="5" height="5"/>
<rect x="109" fill="#FFFFFF" width="5" height="5"/>
<rect x="119" fill="#FFFFFF" width="5" height="5"/>
<rect x="129" fill="#FFFFFF" width="5" height="5"/>
<rect x="139" fill="#FFFFFF" width="5" height="5"/>
<rect x="149" fill="#FFFFFF" width="5" height="5"/>
<rect x="159" fill="#FFFFFF" width="5" height="5"/>
<rect x="169" fill="#FFFFFF" width="5" height="5"/>
<rect x="179" fill="#FFFFFF" width="5" height="5"/>
<rect x="189" fill="#FFFFFF" width="5" height="5"/>
<rect x="99" y="10" fill="#FFFFFF" width="5" height="5"/>
<rect x="109" y="10" fill="#FFFFFF" width="5" height="5"/>
<rect x="119" y="10" fill="#FFFFFF" width="5" height="5"/>
<rect x="129" y="10" fill="#FFFFFF" width="5" height="5"/>
<rect x="139" y="10" fill="#FFFFFF" width="5" height="5"/>
<rect x="149" y="10" fill="#FFFFFF" width="5" height="5"/>
<rect x="159" y="10" fill="#FFFFFF" width="5" height="5"/>
<rect x="169" y="10" fill="#FFFFFF" width="5" height="5"/>
<rect x="179" y="10" fill="#FFFFFF" width="5" height="5"/>
<rect x="99" y="20" fill="#FFFFFF" width="5" height="5"/>
<rect x="109" y="20" fill="#FFFFFF" width="5" height="5"/>
<rect x="119" y="20" fill="#FFFFFF" width="5" height="5"/>
<rect x="129" y="20" fill="#FFFFFF" width="5" height="5"/>
<rect x="139" y="20" fill="#FFFFFF" width="5" height="5"/>
<rect x="149" y="20" fill="#FFFFFF" width="5" height="5"/>
<rect x="159" y="20" fill="#FFFFFF" width="5" height="5"/>
<rect x="169" y="20" fill="#FFFFFF" width="5" height="5"/>
<rect x="99" y="30" fill="#FFFFFF" width="5" height="5"/>
<rect x="109" y="30" fill="#FFFFFF" width="5" height="5"/>
<rect x="119" y="30" fill="#FFFFFF" width="5" height="5"/>
<rect x="129" y="30" fill="#FFFFFF" width="5" height="5"/>
<rect x="139" y="30" fill="#FFFFFF" width="5" height="5"/>
<rect x="149" y="30" fill="#FFFFFF" width="5" height="5"/>
<rect x="159" y="30" fill="#FFFFFF" width="5" height="5"/>
<rect x="99" y="40" fill="#FFFFFF" width="5" height="5"/>
<rect x="109" y="40" fill="#FFFFFF" width="5" height="5"/>
<rect x="119" y="40" fill="#FFFFFF" width="5" height="5"/>
<rect x="129" y="40" fill="#FFFFFF" width="5" height="5"/>
<rect x="139" y="40" fill="#FFFFFF" width="5" height="5"/>
<rect x="149" y="40" fill="#FFFFFF" width="5" height="5"/>
<rect x="-1" y="100" fill="#FFFFFF" width="5" height="5"/>
<rect x="9" y="100" fill="#FFFFFF" width="5" height="5"/>
<rect x="19" y="100" fill="#FFFFFF" width="5" height="5"/>
<rect x="29" y="100" fill="#FFFFFF" width="5" height="5"/>
<rect x="39" y="100" fill="#FFFFFF" width="5" height="5"/>
<rect x="-1" y="110" fill="#FFFFFF" width="5" height="5"/>
<rect x="9" y="110" fill="#FFFFFF" width="5" height="5"/>
<rect x="19" y="110" fill="#FFFFFF" width="5" height="5"/>
<rect x="29" y="110" fill="#FFFFFF" width="5" height="5"/>
<rect x="39" y="110" fill="#FFFFFF" width="5" height="5"/>
<rect x="-1" y="120" fill="#FFFFFF" width="5" height="5"/>
<rect x="9" y="120" fill="#FFFFFF" width="5" height="5"/>
<rect x="19" y="120" fill="#FFFFFF" width="5" height="5"/>
<rect x="29" y="120" fill="#FFFFFF" width="5" height="5"/>
<rect x="39" y="120" fill="#FFFFFF" width="5" height="5"/>
<rect x="-1" y="130" fill="#FFFFFF" width="5" height="5"/>
<rect x="9" y="130" fill="#FFFFFF" width="5" height="5"/>
<rect x="19" y="130" fill="#FFFFFF" width="5" height="5"/>
<rect x="29" y="130" fill="#FFFFFF" width="5" height="5"/>
<rect x="39" y="130" fill="#FFFFFF" width="5" height="5"/>
<rect x="-1" y="140" fill="#FFFFFF" width="5" height="5"/>
<rect x="9" y="140" fill="#FFFFFF" width="5" height="5"/>
<rect x="19" y="140" fill="#FFFFFF" width="5" height="5"/>
<rect x="29" y="140" fill="#FFFFFF" width="5" height="5"/>
<rect x="39" y="140" fill="#FFFFFF" width="5" height="5"/>
<rect x="-1" y="150" fill="#FFFFFF" width="5" height="5"/>
<rect x="9" y="150" fill="#FFFFFF" width="5" height="5"/>
<rect x="19" y="150" fill="#FFFFFF" width="5" height="5"/>
<rect x="29" y="150" fill="#FFFFFF" width="5" height="5"/>
<rect x="39" y="150" fill="#FFFFFF" width="5" height="5"/>
<rect x="49" y="150" fill="#FFFFFF" width="5" height="5"/>
<rect x="59" y="150" fill="#FFFFFF" width="5" height="5"/>
<rect x="69" y="150" fill="#FFFFFF" width="5" height="5"/>
<rect x="79" y="150" fill="#FFFFFF" width="5" height="5"/>
<rect x="89" y="150" fill="#FFFFFF" width="5" height="5"/>
<rect x="9" y="160" fill="#FFFFFF" width="5" height="5"/>
<rect x="19" y="160" fill="#FFFFFF" width="5" height="5"/>
<rect x="29" y="160" fill="#FFFFFF" width="5" height="5"/>
<rect x="39" y="160" fill="#FFFFFF" width="5" height="5"/>
<rect x="49" y="160" fill="#FFFFFF" width="5" height="5"/>
<rect x="59" y="160" fill="#FFFFFF" width="5" height="5"/>
<rect x="69" y="160" fill="#FFFFFF" width="5" height="5"/>
<rect x="79" y="160" fill="#FFFFFF" width="5" height="5"/>
<rect x="89" y="160" fill="#FFFFFF" width="5" height="5"/>
<rect x="19" y="170" fill="#FFFFFF" width="5" height="5"/>
<rect x="29" y="170" fill="#FFFFFF" width="5" height="5"/>
<rect x="39" y="170" fill="#FFFFFF" width="5" height="5"/>
<rect x="49" y="170" fill="#FFFFFF" width="5" height="5"/>
<rect x="59" y="170" fill="#FFFFFF" width="5" height="5"/>
<rect x="69" y="170" fill="#FFFFFF" width="5" height="5"/>
<rect x="79" y="170" fill="#FFFFFF" width="5" height="5"/>
<rect x="89" y="170" fill="#FFFFFF" width="5" height="5"/>
<rect x="29" y="180" fill="#FFFFFF" width="5" height="5"/>
<rect x="39" y="180" fill="#FFFFFF" width="5" height="5"/>
<rect x="49" y="180" fill="#FFFFFF" width="5" height="5"/>
<rect x="59" y="180" fill="#FFFFFF" width="5" height="5"/>
<rect x="69" y="180" fill="#FFFFFF" width="5" height="5"/>
<rect x="79" y="180" fill="#FFFFFF" width="5" height="5"/>
<rect x="89" y="180" fill="#FFFFFF" width="5" height="5"/>
<rect x="39" y="190" fill="#FFFFFF" width="5" height="5"/>
<rect x="49" y="190" fill="#FFFFFF" width="5" height="5"/>
<rect x="59" y="190" fill="#FFFFFF" width="5" height="5"/>
<rect x="69" y="190" fill="#FFFFFF" width="5" height="5"/>
<rect x="79" y="190" fill="#FFFFFF" width="5" height="5"/>
<rect x="89" y="190" fill="#FFFFFF" width="5" height="5"/>
<rect x="99" y="150" fill="#FFFFFF" width="5" height="5"/>
<rect x="109" y="150" fill="#FFFFFF" width="5" height="5"/>
<rect x="119" y="150" fill="#FFFFFF" width="5" height="5"/>
<rect x="129" y="150" fill="#FFFFFF" width="5" height="5"/>
<rect x="139" y="150" fill="#FFFFFF" width="5" height="5"/>
<rect x="149" y="150" fill="#FFFFFF" width="5" height="5"/>
<rect x="99" y="160" fill="#FFFFFF" width="5" height="5"/>
<rect x="109" y="160" fill="#FFFFFF" width="5" height="5"/>
<rect x="119" y="160" fill="#FFFFFF" width="5" height="5"/>
<rect x="129" y="160" fill="#FFFFFF" width="5" height="5"/>
<rect x="139" y="160" fill="#FFFFFF" width="5" height="5"/>
<rect x="149" y="160" fill="#FFFFFF" width="5" height="5"/>
<rect x="159" y="160" fill="#FFFFFF" width="5" height="5"/>
<rect x="99" y="170" fill="#FFFFFF" width="5" height="5"/>
<rect x="109" y="170" fill="#FFFFFF" width="5" height="5"/>
<rect x="119" y="170" fill="#FFFFFF" width="5" height="5"/>
<rect x="129" y="170" fill="#FFFFFF" width="5" height="5"/>
<rect x="139" y="170" fill="#FFFFFF" width="5" height="5"/>
<rect x="149" y="170" fill="#FFFFFF" width="5" height="5"/>
<rect x="159" y="170" fill="#FFFFFF" width="5" height="5"/>
<rect x="169" y="170" fill="#FFFFFF" width="5" height="5"/>
<rect x="99" y="180" fill="#FFFFFF" width="5" height="5"/>
<rect x="109" y="180" fill="#FFFFFF" width="5" height="5"/>
<rect x="119" y="180" fill="#FFFFFF" width="5" height="5"/>
<rect x="129" y="180" fill="#FFFFFF" width="5" height="5"/>
<rect x="139" y="180" fill="#FFFFFF" width="5" height="5"/>
<rect x="149" y="180" fill="#FFFFFF" width="5" height="5"/>
<rect x="159" y="180" fill="#FFFFFF" width="5" height="5"/>
<rect x="169" y="180" fill="#FFFFFF" width="5" height="5"/>
<rect x="179" y="180" fill="#FFFFFF" width="5" height="5"/>
<rect x="99" y="190" fill="#FFFFFF" width="5" height="5"/>
<rect x="109" y="190" fill="#FFFFFF" width="5" height="5"/>
<rect x="119" y="190" fill="#FFFFFF" width="5" height="5"/>
<rect x="129" y="190" fill="#FFFFFF" width="5" height="5"/>
<rect x="139" y="190" fill="#FFFFFF" width="5" height="5"/>
<rect x="149" y="190" fill="#FFFFFF" width="5" height="5"/>
<rect x="159" y="190" fill="#FFFFFF" width="5" height="5"/>
<rect x="169" y="190" fill="#FFFFFF" width="5" height="5"/>
<rect x="179" y="190" fill="#FFFFFF" width="5" height="5"/>
<rect x="189" y="190" fill="#FFFFFF" width="5" height="5"/>
</svg>
