<?xml version="1.0" encoding="utf-8"?>
<!-- Generator: Adobe Illustrator 16.0.0, SVG Export Plug-In . SVG Version: 6.00 Build 0)  -->
<!DOCTYPE svg PUBLIC "-//W3C//DTD SVG 1.1//EN" "http://www.w3.org/Graphics/SVG/1.1/DTD/svg11.dtd">
<svg version="1.1" id="Layer_1" xmlns="http://www.w3.org/2000/svg" xmlns:xlink="http://www.w3.org/1999/xlink" x="0px" y="0px"
	 width="211px" height="210px" viewBox="0 0 211 210" enable-background="new 0 0 211 210" xml:space="preserve">
<rect y="40" fill="#FFFFFF" width="10" height="10"/>
<rect x="20" y="20" fill="#FFFFFF" width="10" height="10"/>
<rect x="40" fill="#FFFFFF" width="10" height="10"/>
<rect x="40" y="20" fill="#FFFFFF" width="10" height="10"/>
<rect x="20" y="40" fill="#FFFFFF" width="10" height="10"/>
<rect x="40" y="40" fill="#FFFFFF" width="10" height="10"/>
<rect x="60" fill="#FFFFFF" width="10" height="10"/>
<rect x="60" y="20" fill="#FFFFFF" width="10" height="10"/>
<rect x="60" y="40" fill="#FFFFFF" width="10" height="10"/>
<rect x="80" fill="#FFFFFF" width="10" height="10"/>
<rect x="80" y="20" fill="#FFFFFF" width="10" height="10"/>
<rect x="80" y="40" fill="#FFFFFF" width="10" height="10"/>
<rect x="100" fill="#FFFFFF" width="10" height="10"/>
<rect x="100" y="20" fill="#FFFFFF" width="10" height="10"/>
<rect x="100" y="40" fill="#FFFFFF" width="10" height="10"/>
<rect x="120" fill="#FFFFFF" width="10" height="10"/>
<rect x="120" y="20" fill="#FFFFFF" width="10" height="10"/>
<rect x="120" y="40" fill="#FFFFFF" width="10" height="10"/>
<rect x="140" fill="#FFFFFF" width="10" height="10"/>
<rect x="140" y="20" fill="#FFFFFF" width="10" height="10"/>
<rect x="140" y="40" fill="#FFFFFF" width="10" height="10"/>
<rect x="160" fill="#FFFFFF" width="10" height="10"/>
<rect x="160" y="20" fill="#FFFFFF" width="10" height="10"/>
<rect x="160" y="40" fill="#FFFFFF" width="10" height="10"/>
<rect x="200" fill="#FFFFFF" width="10" height="10"/>
<rect x="180" y="20" fill="#FFFFFF" width="10" height="10"/>
<rect x="180" fill="#FFFFFF" width="10" height="10"/>
<rect y="60" fill="#FFFFFF" width="10" height="10"/>
<rect x="20" y="60" fill="#FFFFFF" width="10" height="10"/>
<rect x="40" y="60" fill="#FFFFFF" width="10" height="10"/>
<rect y="80" fill="#FFFFFF" width="10" height="10"/>
<rect x="20" y="80" fill="#FFFFFF" width="10" height="10"/>
<rect x="40" y="80" fill="#FFFFFF" width="10" height="10"/>
<rect y="100" fill="#FFFFFF" width="10" height="10"/>
<rect x="20" y="100" fill="#FFFFFF" width="10" height="10"/>
<rect x="40" y="100" fill="#FFFFFF" width="10" height="10"/>
<rect y="120" fill="#FFFFFF" width="10" height="10"/>
<rect x="20" y="120" fill="#FFFFFF" width="10" height="10"/>
<rect x="40" y="120" fill="#FFFFFF" width="10" height="10"/>
<rect y="140" fill="#FFFFFF" width="10" height="10"/>
<rect x="20" y="140" fill="#FFFFFF" width="10" height="10"/>
<rect x="40" y="140" fill="#FFFFFF" width="10" height="10"/>
<rect x="200" y="200" fill="#FFFFFF" width="10" height="10"/>
<rect x="180" y="180" fill="#FFFFFF" width="10" height="10"/>
<rect x="160" y="160" fill="#FFFFFF" width="10" height="10"/>
<rect x="160" y="180" fill="#FFFFFF" width="10" height="10"/>
<rect x="180" y="200" fill="#FFFFFF" width="10" height="10"/>
<rect x="160" y="200" fill="#FFFFFF" width="10" height="10"/>
<rect x="140" y="160" fill="#FFFFFF" width="10" height="10"/>
<rect x="140" y="180" fill="#FFFFFF" width="10" height="10"/>
<rect x="140" y="200" fill="#FFFFFF" width="10" height="10"/>
<rect x="120" y="160" fill="#FFFFFF" width="10" height="10"/>
<rect x="120" y="180" fill="#FFFFFF" width="10" height="10"/>
<rect x="120" y="200" fill="#FFFFFF" width="10" height="10"/>
<rect x="100" y="160" fill="#FFFFFF" width="10" height="10"/>
<rect x="100" y="180" fill="#FFFFFF" width="10" height="10"/>
<rect x="100" y="200" fill="#FFFFFF" width="10" height="10"/>
<rect x="80" y="160" fill="#FFFFFF" width="10" height="10"/>
<rect x="80" y="180" fill="#FFFFFF" width="10" height="10"/>
<rect x="80" y="200" fill="#FFFFFF" width="10" height="10"/>
<rect x="60" y="160" fill="#FFFFFF" width="10" height="10"/>
<rect x="60" y="180" fill="#FFFFFF" width="10" height="10"/>
<rect x="60" y="200" fill="#FFFFFF" width="10" height="10"/>
<rect x="40" y="160" fill="#FFFFFF" width="10" height="10"/>
<rect x="40" y="180" fill="#FFFFFF" width="10" height="10"/>
<rect x="40" y="200" fill="#FFFFFF" width="10" height="10"/>
<rect y="160" fill="#FFFFFF" width="10" height="10"/>
<rect x="20" y="180" fill="#FFFFFF" width="10" height="10"/>
<rect x="20" y="160" fill="#FFFFFF" width="10" height="10"/>
</svg>
